<?xml version="1.0" encoding="utf-8"?>
<!-- Generator: Adobe Illustrator 25.2.0, SVG Export Plug-In . SVG Version: 6.00 Build 0)  -->
<svg version="1.1" id="Layer_1" xmlns="http://www.w3.org/2000/svg" xmlns:xlink="http://www.w3.org/1999/xlink" x="0px" y="0px"
	 viewBox="0 0 113.39 113.39" style="enable-background:new 0 0 113.39 113.39;" xml:space="preserve">
<style type="text/css">
	.st0{fill:#CBCBCB;}
	.st1{fill:#F8911F;}
	.st2{fill:#F9AF3A;}
	.st3{fill:#ECD927;}
	.st4{fill:#E5C886;}
	.st5{fill:#FA5F90;}
	.st6{fill:#EB2C60;}
	.st7{fill:#FFFFFF;}
	.st8{fill:#E6E6E6;}
	.st9{fill:none;stroke:#231F20;stroke-miterlimit:10;}
	.st10{fill:#231F20;stroke:#231F20;stroke-miterlimit:10;}
	.st11{fill:none;}
</style>
<path class="st0" d="M87.23,40.07c-1.45-1.59-2.9-3.18-4.35-4.77c1.36-1.38,2.73-2.76,4.09-4.15c1.51,1.71,3.02,3.42,4.53,5.13
	C90.08,37.54,88.65,38.81,87.23,40.07z"/>
<path class="st1" d="M82.94,36.05c1.64,1.55,3.27,3.1,4.91,4.64c-9.47,9.11-18.98,18.39-28.53,27.85
	c-6.42,6.35-12.75,12.69-19.01,19.01c-1.2,0.7-2.66,0.68-3.63-0.05c-1.31-0.98-1.63-3.16-0.39-4.79c2.14-2.47,4.47-5.02,7.03-7.61
	c3.16-3.21,6.27-6.09,9.26-8.67"/>
<path class="st2" d="M77.84,31.19c1.53,1.48,3.06,2.96,4.59,4.44c-9.32,9.4-18.66,18.79-28.01,28.16
	c-6.33,6.34-12.67,12.68-19.01,19.01c-1.27,0.84-2.87,0.79-3.89-0.04c-1.29-1.07-1.49-3.29-0.13-4.8c2.14-2.47,4.47-5.02,7.03-7.61
	c2.17-2.2,5.71-4.68,9.26-8.67"/>
<path class="st3" d="M73.04,26.06c1.52,1.46,3.04,2.92,4.56,4.38c-9.44,9.36-18.86,18.73-28.26,28.11
	c-6.34,6.33-12.68,12.67-19.01,19.01c-1.43,1.07-3.46,0.77-4.47-0.59c-0.95-1.27-0.77-3.13,0.45-4.25c2.14-2.47,4.47-5.02,7.03-7.61
	c3.16-3.21,6.27-6.09,9.26-8.67"/>
<path class="st4" d="M24.81,75.97c0.69,0.14,0.97,1.81,2.69,2.47c0.97,0.37,1.94,0.24,2.62,0.06c-0.04,0.19-0.41,2.36,1.19,3.97
	c1.34,1.35,3.06,1.3,3.35,1.28c-0.04,0.29-0.24,1.96,0.93,3.4c0.89,1.09,2.04,1.41,2.42,1.49c-5.28,2.37-10.57,4.73-15.85,7.1
	c-1.51-1.31-3.02-2.63-4.54-3.94C21.72,79.11,23.76,75.76,24.81,75.97z"/>
<path class="st5" d="M77.78,22.4c-0.44,0-0.88,0-1.32,0c2.24-2.31,4.47-4.63,6.71-6.94c0.81-0.33,2.03-0.69,3.51-0.67
	c1.26,0.02,2.19,0.3,2.44,0.38c1.08,0.35,1.84,0.85,2.2,1.1c1.4,1,1.16,1.52,2.85,2.99c0.73,0.63,1.05,0.77,1.06,1.14
	c0.02,0.69-1.07,1.14-2.5,2.02c-1.58,0.97-1.78,1.37-2.45,1.9c0,0-0.37,0.28-0.85,0.58c-0.74,0.45-2.75,1.48-5.45,2.76
	c-0.5-0.6-1.07-1.22-1.71-1.84C80.71,24.3,79.14,23.2,77.78,22.4z"/>
<path class="st6" d="M82.89,26.27c1.9-2.33,3.68-4,5-5.12c1.15-0.97,1.72-1.33,2.48-1.54c2.36-0.67,4.46,0.62,5.45,1.23
	c0.87,0.54,1.96,1.21,2.65,2.51c1.23,2.33,0.3,4.88,0.03,5.53c-0.64,1.57-1.48,2.02-4.38,4.99c-1.38,1.4-2.45,2.59-3.1,3.33
	c-0.2-1.53-0.67-2.69-1.16-3.56c-0.85-1.52-1.77-2.17-4.2-4.55C84.5,27.96,83.57,26.98,82.89,26.27z"/>
<path class="st7" d="M78.64,30.9c-1.87-1.61-3.73-3.23-5.6-4.84c1.25-1.1,2.51-2.2,3.76-3.3c0.56-0.06,1.26-0.05,2,0.18
	c2.76,0.87,3.64,4.03,3.74,4.37C81.24,28.51,79.94,29.7,78.64,30.9z"/>
<path class="st8" d="M82.88,35.3c-1.58-1.64-3.16-3.28-4.74-4.92c1.4-1.29,2.8-2.57,4.2-3.86l4.63,4.63
	C85.61,32.54,84.24,33.92,82.88,35.3z"/>
<path class="st9" d="M90.3,37.69c-0.31,0.31-0.62,0.62-0.93,0.93l-0.98,0.98c-0.46,0.46-1.19,0.46-1.65,0l-1.62-1.62
	c-3.29-3.29-6.57-6.57-9.86-9.86l-1.35-1.35c-0.46-0.46-0.46-1.19,0-1.65l1.34-1.34c0.24-0.24,0.48-0.48,0.72-0.72
	c0.27-0.14,0.99-0.46,1.94-0.35c0.96,0.11,1.59,0.61,1.81,0.8l10.12,10.12c0.22,0.27,0.67,0.89,0.81,1.81
	C90.82,36.53,90.46,37.38,90.3,37.69z"/>
<path class="st9" d="M77.2,31.28L31.15,77.33c-1.38,1.38-3.61,1.38-4.98,0l-0.03-0.03c-1.38-1.38-1.38-3.61,0-4.98l46.05-46.05
	c0.34-0.34,0.9-0.34,1.24,0l3.78,3.78C77.54,30.38,77.54,30.94,77.2,31.28z"/>
<path class="st9" d="M82.37,36.45L36.32,82.5c-1.38,1.38-3.61,1.38-4.98,0l-0.03-0.03c-1.38-1.38-1.38-3.61,0-4.98l46.05-46.05
	c0.34-0.34,0.9-0.34,1.24,0l3.78,3.78C82.71,35.56,82.71,36.11,82.37,36.45z"/>
<path class="st9" d="M87.23,41.31L41.18,87.36c-1.38,1.38-3.61,1.38-4.98,0l-0.03-0.03c-1.38-1.38-1.38-3.61,0-4.98l46.05-46.05
	c0.34-0.34,0.9-0.34,1.24,0l3.78,3.78C87.57,40.41,87.57,40.97,87.23,41.31z"/>
<path class="st9" d="M87.85,40.69L72.8,25.64l9.34-9.34c2.69-2.69,7.06-2.69,9.76,0l5.29,5.29c2.69,2.69,2.69,7.06,0,9.76
	L87.85,40.69z"/>
<path class="st9" d="M25.68,72.87c-3.8,8.17-7.59,16.34-11.39,24.5c-0.48,1.02,0.58,2.09,1.61,1.62
	c8.22-3.72,16.45-7.43,24.67-11.15"/>
<path class="st10" d="M18.5,89.76c0.25,0.71,0.79,1.99,1.98,3.22c1.19,1.22,2.46,1.81,3.16,2.08c-2.51,1.16-5.02,2.33-7.53,3.49
	c-0.7,0.32-1.32-0.27-1.01-0.98L18.5,89.76z"/>
<path class="st11" d="M77.47,22c2.39-2.32,4.79-4.65,7.18-6.97"/>
</svg>
