<?xml version="1.0" encoding="utf-8"?>
<!-- Generator: Adobe Illustrator 25.2.0, SVG Export Plug-In . SVG Version: 6.00 Build 0)  -->
<svg version="1.1" id="Layer_1" xmlns="http://www.w3.org/2000/svg" xmlns:xlink="http://www.w3.org/1999/xlink" x="0px" y="0px"
	 viewBox="0 0 113.39 113.39" style="enable-background:new 0 0 113.39 113.39;" xml:space="preserve">
<style type="text/css">
	.st0{fill:#4A9ED7;}
	.st1{fill:none;stroke:#FFFFFF;stroke-width:5;stroke-linecap:round;stroke-miterlimit:10;}
	.st2{fill:#FFFFFF;}
</style>
<g>
	<ellipse class="st0" cx="56.69" cy="56.69" rx="44.49" ry="44.9"/>
	<path class="st1" d="M76.01,54.61v18.88c0,1.21-0.97,2.18-2.18,2.18H39.54c-1.21,0-2.18-0.97-2.18-2.18V54.61"/>
	<path class="st2" d="M63.33,28.3c0.03,6.56,0.05,13.13,0.08,19.69h4.7c0.19,0,0.31,0.36,0.16,0.57
		c-3.78,5.51-7.54,11.01-11.32,16.52c-0.26,0.37-0.66,0.37-0.92-0.02c-3.63-5.56-7.28-11.13-10.92-16.68
		c-0.15-0.21-0.03-0.57,0.16-0.57c1.47,0.02,2.96,0.03,4.43,0.05c0-4.02,0.02-8.14,0.02-12.15c0-1.81,0-5.59,0-7.4
		C54.25,28.32,58.79,28.32,63.33,28.3z"/>
</g>
</svg>
