<?xml version="1.0" encoding="utf-8"?>
<!-- Generator: Adobe Illustrator 25.2.0, SVG Export Plug-In . SVG Version: 6.00 Build 0)  -->
<svg version="1.1" id="Layer_1" xmlns="http://www.w3.org/2000/svg" xmlns:xlink="http://www.w3.org/1999/xlink" x="0px" y="0px"
	 viewBox="0 0 113.39 113.39" style="enable-background:new 0 0 113.39 113.39;" xml:space="preserve">
<style type="text/css">
	.st0{fill:#231F20;stroke:#231F20;stroke-width:2;stroke-linecap:round;stroke-miterlimit:10;}
	.st1{fill:#FFFFFF;}
	.st2{fill:#DE4C4A;}
	.st3{fill:none;stroke:#231F20;stroke-width:2;stroke-miterlimit:10;}
	.st4{fill:none;stroke:#FFFFFF;stroke-width:2;stroke-linecap:round;stroke-miterlimit:10;}
	.st5{fill:none;stroke:#231F20;stroke-width:2;stroke-linecap:round;stroke-miterlimit:10;}
</style>
<path class="st0" d="M97.83,93.76H52.51c-0.53,0-0.96-0.43-0.96-0.96l0,0c0-0.53,0.43-0.96,0.96-0.96h45.33
	c0.53,0,0.96,0.43,0.96,0.96l0,0C98.79,93.33,98.36,93.76,97.83,93.76z"/>
<path class="st1" d="M40.86,40.3C51.64,51.35,62.42,62.4,73.2,73.45c-7.27,6.87-14.53,13.74-21.8,20.61
	c-5.82,5.5-14.98,5.34-20.61-0.36c-4.13-4.19-8.25-8.37-12.38-12.56c-5.9-5.99-5.6-15.69,0.66-21.31
	C26.33,53.32,33.59,46.81,40.86,40.3z"/>
<path class="st2" d="M98.79,42.94c-0.08,4.38-1.99,7.83-3.37,9.82c-7.41,6.75-14.83,13.5-22.24,20.25
	c-5.86-5.53-11.85-11.43-17.9-17.73c-5.01-5.21-9.76-10.36-14.24-15.42c6.38-6.62,12.1-11.83,16.52-15.64
	c8.32-7.19,10.83-8.38,13.74-8.57c6.32-0.42,11.19,4.09,16.5,8.99C92.92,29.38,98.94,34.94,98.79,42.94z"/>
<path class="st3" d="M30.35,93.61L18.54,81.14c-5.63-5.94-5.37-15.32,0.57-20.95l43.28-40.98c5.94-5.63,15.32-5.37,20.95,0.57
	l11.81,12.47c5.63,5.94,5.37,15.32-0.57,20.95L51.3,94.18C45.36,99.81,35.98,99.55,30.35,93.61z"/>
<path class="st3" d="M40.5,39.94c10.9,11.17,21.8,22.34,32.7,33.51"/>
<path class="st4" d="M58.01,34.09l10.62-10.16c1.83-1.75,4.72-1.75,6.54,0.01l3.73,3.6"/>
<path class="st4" d="M52.97,38.44c0.74-0.62,1.48-1.25,2.22-1.87"/>
<g>
	<path class="st5" d="M76.74,76.66c-0.04,2.26-0.08,4.53-0.12,6.79"/>
</g>
<path class="st5" d="M83.55,80.7c-1.41,1.63-2.81,3.25-4.22,4.88"/>
<path class="st5" d="M87.27,88.19c-2.07-0.02-4.15-0.04-6.22-0.07"/>
</svg>
