<?xml version="1.0" encoding="utf-8"?>
<!-- Generator: Adobe Illustrator 25.2.0, SVG Export Plug-In . SVG Version: 6.00 Build 0)  -->
<svg version="1.1" id="Layer_1" xmlns="http://www.w3.org/2000/svg" xmlns:xlink="http://www.w3.org/1999/xlink" x="0px" y="0px"
	 viewBox="0 0 113.39 113.39" style="enable-background:new 0 0 113.39 113.39;" xml:space="preserve">
<style type="text/css">
	.st0{fill:#2D3E50;}
	.st1{fill:#FFFFFF;}
	.st2{fill:#007BC0;}
	.st3{fill:none;}
</style>
<g>
	<path class="st0" d="M62.32,20.61c-3.32,8.73-1.46,18.97,5.57,26c6.23,6.22,14.97,8.39,22.95,6.51l0.01,0.03v40.46
		c0,5.96-4.83,10.79-10.79,10.79H17.87c-5.96,0-10.79-4.83-10.79-10.79V31.42c0-5.96,4.83-10.79,10.79-10.79h44.52"/>
	<circle class="st1" cx="32.47" cy="43.33" r="10.89"/>
	<circle class="st2" cx="85.82" cy="29.47" r="20.48"/>
	<path class="st1" d="M19.43,91.16c19.87-0.02,39.74-0.05,59.62-0.07c1.56,0,2.54-1.67,1.79-3.03
		c-6.04-10.93-12.08-21.87-18.12-32.8c-0.68-1.23-2.44-1.25-3.14-0.03c-3.17,5.5-6.34,11.01-9.51,16.51c-1.44,2.5-4.83,3-6.93,1.03
		c-1.06-0.99-2.12-1.99-3.17-2.98c-2-1.88-5.19-1.61-6.85,0.58c-4.83,6.39-9.65,12.79-14.48,19.18
		C18.13,90.21,18.6,91.16,19.43,91.16z"/>
	<path class="st1" d="M76.5,29.78c2.27-2.13,4.54-4.26,6.81-6.39c0.05,6.28,0.1,12.55,0.15,18.83c0,0.42,0.34,0.76,0.76,0.76h3.06
		c0.42,0,0.77-0.35,0.76-0.77c-0.06-6.19-0.12-12.39-0.18-18.58c2.17,2.07,4.33,4.13,6.5,6.2l2.87-3.29
		c-3.88-3.9-7.75-7.8-11.63-11.7L73.79,26.49L76.5,29.78z"/>
	<path class="st3" d="M85.91,22.97"/>
</g>
</svg>
