<?xml version="1.0" encoding="utf-8"?>
<!-- Generator: Adobe Illustrator 25.2.0, SVG Export Plug-In . SVG Version: 6.00 Build 0)  -->
<svg version="1.1" id="Layer_2" xmlns="http://www.w3.org/2000/svg" xmlns:xlink="http://www.w3.org/1999/xlink" x="0px" y="0px"
	 viewBox="0 0 113.39 113.39" style="enable-background:new 0 0 113.39 113.39;" xml:space="preserve">
<style type="text/css">
	.st0{fill:url(#SVGID_1_);}
	.st1{fill:#193342;}
	.st2{fill:#FFFFFF;}
	.st3{fill:#337DBD;}
</style>
<g>
	<linearGradient id="SVGID_1_" gradientUnits="userSpaceOnUse" x1="4.5996" y1="61.0556" x2="89.1274" y2="61.0556">
		<stop  offset="0" style="stop-color:#193342"/>
		<stop  offset="0.1111" style="stop-color:#1E3746"/>
		<stop  offset="0.2422" style="stop-color:#2C4452"/>
		<stop  offset="0.3835" style="stop-color:#445965"/>
		<stop  offset="0.5321" style="stop-color:#657781"/>
		<stop  offset="0.6863" style="stop-color:#909DA4"/>
		<stop  offset="0.8432" style="stop-color:#C4CACE"/>
		<stop  offset="1" style="stop-color:#FFFFFF"/>
	</linearGradient>
	<path class="st0" d="M73.94,107.18L14.33,92.84c-2.01-0.48-3.25-2.51-2.77-4.52L28.55,17.7c0.48-2.01,2.51-3.25,4.52-2.77
		l59.62,14.34c2.01,0.48,3.25,2.51,2.77,4.52l-16.98,70.61C77.98,106.42,75.96,107.66,73.94,107.18z"/>
	<path class="st1" d="M96.54,98H36.63c-2.57,0-4.65-2.08-4.65-4.65V22.41c0-2.57,2.08-4.65,4.65-4.65h59.91
		c2.57,0,4.65,2.08,4.65,4.65v70.94C101.19,95.92,99.11,98,96.54,98z"/>
	<rect x="37.5" y="23.28" class="st2" width="58.01" height="69.21"/>
	<path class="st1" d="M66.51,54.59H50.77c-1.35,0-2.44-1.09-2.44-2.44v0c0-1.35,1.09-2.44,2.44-2.44h15.74
		c1.35,0,2.44,1.09,2.44,2.44v0C68.96,53.5,67.86,54.59,66.51,54.59z"/>
	<path class="st1" d="M82.64,65.78H50.67c-1.3,0-2.35-1.05-2.35-2.35V63.4c0-1.3,1.05-2.35,2.35-2.35h31.97
		c1.3,0,2.35,1.05,2.35,2.35v0.03C84.99,64.73,83.94,65.78,82.64,65.78z"/>
	<path class="st1" d="M82.6,77.04H50.72c-1.32,0-2.39-1.07-2.39-2.39v0c0-1.32,1.07-2.39,2.39-2.39H82.6c1.32,0,2.39,1.07,2.39,2.39
		v0C84.99,75.96,83.92,77.04,82.6,77.04z"/>
	<path class="st2" d="M101.19,28.75c-2.15,3.72-4.1,6.68-5.57,8.8c-2.03,2.93-2.91,3.92-4.17,4.79c-2.79,1.9-5.85,2.1-7.66,2.05
		l-0.89-0.51c-0.32-0.18-0.62-0.39-0.88-0.64c-1.52-1.31-2.21-3.35-1.8-5.29c2.06,0.88,4.48,0.09,5.64-1.9l10.52-18.22
		c0.41-0.71,0.6-1.48,0.6-2.26c0-0.49-0.08-0.96-0.24-1.42c0.99-0.03,1.98,0.22,2.89,0.75l0.89,0.51c-0.34,3.18-0.18,4.46,0.13,4.91
		c0.02,0.03,0.04,0.05,0.04,0.05c0.19,0.22,0.62,0.04,0.8,0.09c0.66,0.18,0.21,3.8,0.18,4.05
		C101.55,25.47,101.38,26.92,101.19,28.75z"/>
	<path class="st3" d="M80.71,17l-3.63,6.28l-2.73,4.73l-0.59,1.01c-2.61,4.53-1.06,10.31,3.47,12.93c1.51,0.87,3.15,1.29,4.78,1.27
		c3.24-0.03,6.4-1.73,8.13-4.74l10.51-18.18c0.71-1.21,1.1-2.51,1.23-3.81c0.03-0.3,0.04-0.6,0.04-0.91c0-3.27-1.71-6.46-4.74-8.21
		c-4.52-2.61-10.3-1.06-12.91,3.47l-0.83,1.43L80.71,17 M96.37,17.81L85.85,36.03c-1.16,2-3.57,2.79-5.64,1.9
		c-0.17-0.07-0.34-0.16-0.51-0.25c-2.17-1.25-2.9-3.99-1.66-6.16l2.02-3.51l2.73-4.73L86.43,17l2.14-3.7
		c0.22-0.39,0.51-0.74,0.83-1.02c1.41-1.33,3.57-1.64,5.33-0.63c1,0.58,1.68,1.47,2.01,2.48c0.16,0.46,0.24,0.93,0.24,1.42
		C96.98,16.32,96.78,17.1,96.37,17.81z"/>
	<path class="st2" d="M96.98,15.55c0,0.78-0.2,1.55-0.6,2.26L85.85,36.03c-1.16,2-3.57,2.79-5.64,1.9
		c-0.17-0.07-0.34-0.16-0.51-0.25c-2.17-1.25-2.9-3.99-1.66-6.16l2.02-3.51l2.73-4.73L86.43,17l2.14-3.7
		c0.22-0.39,0.51-0.74,0.83-1.02c1.41-1.33,3.57-1.64,5.33-0.63c1,0.58,1.68,1.47,2.01,2.48C96.9,14.59,96.98,15.06,96.98,15.55z"/>
	<line class="st2" x1="77.09" y1="23.28" x2="82.8" y2="23.28"/>
	<path class="st1" d="M82.8,23.28c-1.9,0-3.81,0-5.71,0c1.03-1.84,2.06-3.68,3.09-5.52c2,0,4,0.01,6.01,0.01
		C85.05,19.61,83.93,21.45,82.8,23.28z"/>
	<path class="st2" d="M88.84,17.76c-2.89,0-5.78,0-8.67,0c0.94-1.58,1.89-3.15,2.83-4.73c2.33,0,4.65,0,6.98,0
		c-0.06,0.14-0.12,0.3-0.17,0.47c-0.06,0.2-0.11,0.38-0.15,0.55C89.39,15.29,89.12,16.53,88.84,17.76z"/>
	<polyline class="st2" points="85.26,23.28 82.53,28.01 60.79,28.01 60.79,23.28 79.55,23.28 	"/>
</g>
</svg>
