<?xml version="1.0" encoding="utf-8"?>
<!-- Generator: Adobe Illustrator 25.2.0, SVG Export Plug-In . SVG Version: 6.00 Build 0)  -->
<svg version="1.1" id="Layer_1" xmlns="http://www.w3.org/2000/svg" xmlns:xlink="http://www.w3.org/1999/xlink" x="0px" y="0px"
	 viewBox="0 0 113.39 113.39" style="enable-background:new 0 0 113.39 113.39;" xml:space="preserve">
<style type="text/css">
	.st0{fill:#17A2FF;}
	.st1{fill:#008EED;}
</style>
<g>
	<path class="st0" d="M37.74,71.55C28.22,62.23,18.7,52.91,9.17,43.58c-2.57-2.51-2.6-6.64-0.07-9.19
		c9.35-9.45,18.7-18.91,28.05-28.36c3.6-3.64,9.79-1.04,9.72,4.07c-0.06,4.64-0.12,9.27-0.18,13.91c6.01-0.01,12.02-0.02,18.04-0.04
		c22.85-0.05,41.43,18.39,41.56,41.24c0,0.44,0.01,0.89,0.01,1.33l0,0.31c0.26,22.96-18.08,41.81-41.03,42.18l-0.44,0.01
		c-1.37,0.02-2.51-1.04-2.58-2.41c0-0.02,0-0.03,0-0.05c-0.08-1.45,1.07-2.67,2.52-2.68c1.15-0.01,2.31-0.01,3.46-0.02
		c12.07-0.08,21.81-9.88,21.81-21.95c0-1.04,0-2.08,0-3.13c0-13.78-11.13-24.98-24.91-25.06c-6.04-0.04-12.08-0.07-18.13-0.11
		c-0.09,4.74-0.18,9.49-0.27,14.23C46.65,72.51,41.06,74.8,37.74,71.55z"/>
	<path class="st1" d="M8.74,38.08l59.62,0.11c17.56,0.03,31.67,14.47,31.3,32.03l-0.14,6.6c-0.38,2.95-1.91,11.71-9.28,19.42
		c-7.56,7.92-16.53,9.76-19.43,10.24c-2.17,0.09-4.34,0.17-6.51,0.26c-0.9,0-1.64-0.73-1.64-1.64v0c0-0.89,0.71-1.62,1.61-1.64
		l6.21-0.12c1.57-0.12,8.34-0.81,13.78-6.58c5.4-5.72,5.72-12.46,5.76-14.05c-0.07-2.4-0.13-4.8-0.2-7.2
		c-0.29-2.14-1.44-8.67-7-14.31c-5.95-6.04-13.05-7.09-15.11-7.33c-6.9-0.08-13.8-0.17-20.7-0.25c-0.14,5.16-0.29,10.31-0.43,15.47
		c-0.24,1.89-1.52,3.48-3.29,4.07c-2.49,0.82-4.53-0.81-4.65-0.91C28.37,62.08,18.11,51.91,7.85,41.73c-0.8-0.8-0.98-1.94-0.5-2.73
		C7.77,38.29,8.57,38.11,8.74,38.08z"/>
</g>
</svg>
